<?xml version="1.0" encoding="UTF-8" standalone="no"?>
<svg
   data-name="Layer 1"
   viewBox="0 0 100 125"
   x="0px"
   y="0px"
   version="1.1"
   id="svg2"
   sodipodi:docname="carta.svg"
   inkscape:version="1.4.2 (ebf0e940d0, 2025-05-08)"
   xmlns:inkscape="http://www.inkscape.org/namespaces/inkscape"
   xmlns:sodipodi="http://sodipodi.sourceforge.net/DTD/sodipodi-0.dtd"
   xmlns="http://www.w3.org/2000/svg"
   xmlns:svg="http://www.w3.org/2000/svg">
  <sodipodi:namedview
     id="namedview2"
     pagecolor="#ffffff"
     bordercolor="#000000"
     borderopacity="0.25"
     inkscape:showpageshadow="2"
     inkscape:pageopacity="0.0"
     inkscape:pagecheckerboard="0"
     inkscape:deskcolor="#d1d1d1"
     inkscape:zoom="6.448"
     inkscape:cx="49.937965"
     inkscape:cy="33.96402"
     inkscape:window-width="1920"
     inkscape:window-height="1008"
     inkscape:window-x="0"
     inkscape:window-y="0"
     inkscape:window-maximized="1"
     inkscape:current-layer="svg2" />
  <defs
     id="defs1">
    <style
       id="style1">
      .cls-1 {
        stroke-width: 0px;
      }
    </style>
  </defs>
  <path
     class="cls-1"
     d="m81.47,35.76v28.48c0,.1-.02.19-.03.29l-22.82-18.09,22.65-11.95c.11.41.19.82.19,1.27Zm-58.19-4.76h53.42c1.38,0,2.62.6,3.49,1.54l-29.76,15.7-30.63-15.7c.87-.94,2.1-1.53,3.48-1.53Zm-4.76,4.76c0-.44.08-.87.19-1.28l22.51,11.54-22.67,18.49c0-.09-.03-.18-.03-.28v-28.48Zm58.19,33.24H23.29c-1.68,0-3.15-.88-4-2.2l24.11-19.66,6.54,3.35s.09.04.14.05c.03.01.06.03.09.03.09.02.19.04.28.04,0,0,0,0,0,0s0,0,0,0c.09,0,.19-.01.28-.04.03,0,.06-.02.09-.03.05-.02.1-.03.15-.06l5.5-2.9,24.25,19.22c-.85,1.32-2.32,2.2-4,2.2Z"
     id="path1"
     style="fill:#b3b3b3" />
</svg>
