<?xml version="1.0" encoding="UTF-8" standalone="no"?>
<svg
   version="1.1"
   x="0px"
   y="0px"
   viewBox="0 0 96 120"
   style="enable-background:new 0 0 96 96;"
   xml:space="preserve"
   id="svg2"
   sodipodi:docname="pin.svg"
   inkscape:version="1.4.2 (ebf0e940d0, 2025-05-08)"
   xmlns:inkscape="http://www.inkscape.org/namespaces/inkscape"
   xmlns:sodipodi="http://sodipodi.sourceforge.net/DTD/sodipodi-0.dtd"
   xmlns="http://www.w3.org/2000/svg"
   xmlns:svg="http://www.w3.org/2000/svg"><defs
     id="defs2" /><sodipodi:namedview
     id="namedview2"
     pagecolor="#ffffff"
     bordercolor="#000000"
     borderopacity="0.25"
     inkscape:showpageshadow="2"
     inkscape:pageopacity="0.0"
     inkscape:pagecheckerboard="0"
     inkscape:deskcolor="#d1d1d1"
     inkscape:zoom="6.7166667"
     inkscape:cx="47.940447"
     inkscape:cy="60"
     inkscape:window-width="1920"
     inkscape:window-height="1008"
     inkscape:window-x="0"
     inkscape:window-y="0"
     inkscape:window-maximized="1"
     inkscape:current-layer="svg2" /><style
     type="text/css"
     id="style1">
	.st0{fill-rule:evenodd;clip-rule:evenodd;}
</style><path
     class="st0"
     d="M59.026,75c16.892,0.997,29.265,4.23,29.265,8.063c0,4.629-18.039,8.381-40.291,8.381  S7.709,87.691,7.709,83.063c0-3.833,12.373-7.066,29.265-8.063c2.513,3.136,5.103,6.298,7.417,9.582  c0.832,1.181,2.164,1.872,3.609,1.872c1.445,0,2.777-0.691,3.609-1.872C53.923,81.298,56.513,78.136,59.026,75L59.026,75z   M48.002,4.557c-16.164,0-29.266,13.097-29.266,29.262c0,16.569,19.979,36.573,28.543,48.728c0.171,0.242,0.425,0.374,0.721,0.374  c0.296,0,0.551-0.132,0.721-0.374c8.564-12.154,28.543-32.159,28.543-48.728C77.264,17.658,64.163,4.557,48.002,4.557L48.002,4.557z   M48.002,18.035c8.711,0,15.772,7.061,15.772,15.772s-7.061,15.772-15.772,15.772S32.23,42.518,32.23,33.807  S39.292,18.035,48.002,18.035z"
     id="path1"
     style="fill:#b3b3b3" /></svg>
